# xmcd
#
# Track frame offsets: 
#        150
#        12992
#        27661
#        39610
#        55553
#        69429
#        81178
#        95362
#        109686
#        122738
#        137652
#        151035
#        164946
#        178132
#        190939
#        204555
#
# Disc length: 2906 seconds
#
# Revision: 1
# Processed by: cddbd v1.5.2PL0 Copyright (c) Steve Scherf et al.
# Submitted via: ExactAudioCopyFreeDBPlugin 1.0
#
DISCID=da0b5810
DTITLE=Washington Phillips - And His Manzarene Dreams
DYEAR=2016
DGENRE=Blues
TTITLE0=Mother's Last Word to Her Son
TTITLE1=Take Your Burdon to the Lord and Leave It There
TTITLE2=Paul and Silas in Jail
TTITLE3=Lift Him Up That's All
TTITLE4=Denomination Blues -  Pt 1
TTITLE5=Denomination Blues -  Pt 2
TTITLE6=I Am Born to Preach the Gospel
TTITLE7=Train Your Child
TTITLE8=Jesus is My Friend
TTITLE9=What Are They Doing in Heaven Today
TTITLE10=A Mother's Last Word to Her Daughter
TTITLE11=I've Got the Keys to the Kingdom
TTITLE12=You Can't Stop a Tattler - Pt 1
TTITLE13=You Can't Stop a Tattler - Pt 2
TTITLE14=I Had a Good Father and Mother
TTITLE15=The Church Needs Good Deacons
EXTD=
EXTT0=
EXTT1=
EXTT2=
EXTT3=
EXTT4=
EXTT5=
EXTT6=
EXTT7=
EXTT8=
EXTT9=
EXTT10=
EXTT11=
EXTT12=
EXTT13=
EXTT14=
EXTT15=
PLAYORDER=
